<mxfile host="app.diagrams.net" modified="2024-03-31T13:36:43.783Z" agent="Mozilla/5.0 (Windows NT 10.0; Win64; x64) AppleWebKit/537.36 (KHTML, like Gecko) Chrome/123.0.0.0 Safari/537.36 Edg/123.0.0.0" etag="7dFxUCB_vx4ygYitUVsv" version="24.2.1" type="github">
  <diagram id="C5RBs43oDa-KdzZeNtuy" name="Page-1">
    <mxGraphModel dx="646" dy="372" grid="1" gridSize="10" guides="1" tooltips="1" connect="1" arrows="1" fold="1" page="1" pageScale="1" pageWidth="827" pageHeight="1169" math="0" shadow="0">
      <root>
        <mxCell id="WIyWlLk6GJQsqaUBKTNV-0" />
        <mxCell id="WIyWlLk6GJQsqaUBKTNV-1" parent="WIyWlLk6GJQsqaUBKTNV-0" />
        <mxCell id="HZNDwcKFpfIO234wk1Q9-2" value="" style="rounded=0;whiteSpace=wrap;html=1;" vertex="1" parent="WIyWlLk6GJQsqaUBKTNV-1">
          <mxGeometry x="230" y="80" width="400" height="360" as="geometry" />
        </mxCell>
        <mxCell id="HZNDwcKFpfIO234wk1Q9-10" style="edgeStyle=orthogonalEdgeStyle;rounded=0;orthogonalLoop=1;jettySize=auto;html=1;endArrow=block;endFill=0;" edge="1" parent="WIyWlLk6GJQsqaUBKTNV-1" source="HZNDwcKFpfIO234wk1Q9-3" target="HZNDwcKFpfIO234wk1Q9-8">
          <mxGeometry relative="1" as="geometry">
            <Array as="points">
              <mxPoint x="60" y="230" />
              <mxPoint x="60" y="110" />
            </Array>
          </mxGeometry>
        </mxCell>
        <mxCell id="HZNDwcKFpfIO234wk1Q9-14" style="edgeStyle=orthogonalEdgeStyle;rounded=0;orthogonalLoop=1;jettySize=auto;html=1;endArrow=none;endFill=0;" edge="1" parent="WIyWlLk6GJQsqaUBKTNV-1" source="HZNDwcKFpfIO234wk1Q9-3" target="HZNDwcKFpfIO234wk1Q9-13">
          <mxGeometry relative="1" as="geometry" />
        </mxCell>
        <mxCell id="HZNDwcKFpfIO234wk1Q9-3" value="Admin" style="shape=umlActor;verticalLabelPosition=bottom;verticalAlign=top;html=1;" vertex="1" parent="WIyWlLk6GJQsqaUBKTNV-1">
          <mxGeometry x="130" y="140" width="30" height="60" as="geometry" />
        </mxCell>
        <mxCell id="HZNDwcKFpfIO234wk1Q9-8" value="Users&lt;div&gt;&lt;br&gt;&lt;/div&gt;" style="shape=umlActor;verticalLabelPosition=bottom;verticalAlign=top;html=1;" vertex="1" parent="WIyWlLk6GJQsqaUBKTNV-1">
          <mxGeometry x="70" y="80" width="30" height="60" as="geometry" />
        </mxCell>
        <mxCell id="HZNDwcKFpfIO234wk1Q9-18" style="edgeStyle=orthogonalEdgeStyle;rounded=0;orthogonalLoop=1;jettySize=auto;html=1;dashed=1;endArrow=open;endFill=0;" edge="1" parent="WIyWlLk6GJQsqaUBKTNV-1" source="HZNDwcKFpfIO234wk1Q9-17" target="HZNDwcKFpfIO234wk1Q9-13">
          <mxGeometry relative="1" as="geometry" />
        </mxCell>
        <mxCell id="HZNDwcKFpfIO234wk1Q9-19" value="&amp;lt;&amp;lt;extend&amp;gt;&amp;gt;" style="edgeLabel;html=1;align=center;verticalAlign=middle;resizable=0;points=[];" vertex="1" connectable="0" parent="HZNDwcKFpfIO234wk1Q9-18">
          <mxGeometry x="-0.115" y="-1" relative="1" as="geometry">
            <mxPoint x="5" y="-16" as="offset" />
          </mxGeometry>
        </mxCell>
        <mxCell id="HZNDwcKFpfIO234wk1Q9-13" value="Login" style="ellipse;whiteSpace=wrap;html=1;" vertex="1" parent="WIyWlLk6GJQsqaUBKTNV-1">
          <mxGeometry x="240" y="110" width="50" height="30" as="geometry" />
        </mxCell>
        <mxCell id="HZNDwcKFpfIO234wk1Q9-17" value="Update Courses" style="ellipse;whiteSpace=wrap;html=1;" vertex="1" parent="WIyWlLk6GJQsqaUBKTNV-1">
          <mxGeometry x="364" y="102.5" width="100" height="45" as="geometry" />
        </mxCell>
        <mxCell id="HZNDwcKFpfIO234wk1Q9-22" style="edgeStyle=orthogonalEdgeStyle;rounded=0;orthogonalLoop=1;jettySize=auto;html=1;endArrow=block;endFill=0;" edge="1" parent="WIyWlLk6GJQsqaUBKTNV-1">
          <mxGeometry relative="1" as="geometry">
            <mxPoint x="80" y="140" as="targetPoint" />
            <Array as="points">
              <mxPoint x="80" y="270" />
            </Array>
            <mxPoint x="130" y="270" as="sourcePoint" />
          </mxGeometry>
        </mxCell>
        <mxCell id="HZNDwcKFpfIO234wk1Q9-25" style="edgeStyle=orthogonalEdgeStyle;rounded=0;orthogonalLoop=1;jettySize=auto;html=1;entryX=0;entryY=1;entryDx=0;entryDy=0;endArrow=none;endFill=0;" edge="1" parent="WIyWlLk6GJQsqaUBKTNV-1" source="HZNDwcKFpfIO234wk1Q9-23" target="HZNDwcKFpfIO234wk1Q9-24">
          <mxGeometry relative="1" as="geometry" />
        </mxCell>
        <mxCell id="HZNDwcKFpfIO234wk1Q9-38" style="edgeStyle=orthogonalEdgeStyle;rounded=0;orthogonalLoop=1;jettySize=auto;html=1;endArrow=none;endFill=0;" edge="1" parent="WIyWlLk6GJQsqaUBKTNV-1" source="HZNDwcKFpfIO234wk1Q9-23" target="HZNDwcKFpfIO234wk1Q9-37">
          <mxGeometry relative="1" as="geometry">
            <Array as="points">
              <mxPoint x="215" y="280" />
              <mxPoint x="215" y="310" />
            </Array>
          </mxGeometry>
        </mxCell>
        <mxCell id="HZNDwcKFpfIO234wk1Q9-23" value="Enrollment" style="shape=umlActor;verticalLabelPosition=bottom;verticalAlign=top;html=1;" vertex="1" parent="WIyWlLk6GJQsqaUBKTNV-1">
          <mxGeometry x="150" y="240" width="30" height="60" as="geometry" />
        </mxCell>
        <mxCell id="HZNDwcKFpfIO234wk1Q9-24" value="Login" style="ellipse;whiteSpace=wrap;html=1;" vertex="1" parent="WIyWlLk6GJQsqaUBKTNV-1">
          <mxGeometry x="250" y="200" width="60" height="30" as="geometry" />
        </mxCell>
        <mxCell id="HZNDwcKFpfIO234wk1Q9-32" style="edgeStyle=orthogonalEdgeStyle;rounded=0;orthogonalLoop=1;jettySize=auto;html=1;dashed=1;endArrow=open;endFill=0;" edge="1" parent="WIyWlLk6GJQsqaUBKTNV-1" target="HZNDwcKFpfIO234wk1Q9-24" source="HZNDwcKFpfIO234wk1Q9-34">
          <mxGeometry relative="1" as="geometry">
            <mxPoint x="330" y="260" as="targetPoint" />
          </mxGeometry>
        </mxCell>
        <mxCell id="HZNDwcKFpfIO234wk1Q9-33" value="&amp;lt;&amp;lt;extend&amp;gt;&amp;gt;" style="edgeLabel;html=1;align=center;verticalAlign=middle;resizable=0;points=[];" vertex="1" connectable="0" parent="HZNDwcKFpfIO234wk1Q9-32">
          <mxGeometry x="-0.115" y="-1" relative="1" as="geometry">
            <mxPoint x="5" y="-16" as="offset" />
          </mxGeometry>
        </mxCell>
        <mxCell id="HZNDwcKFpfIO234wk1Q9-34" value="Enroll Courses" style="ellipse;whiteSpace=wrap;html=1;" vertex="1" parent="WIyWlLk6GJQsqaUBKTNV-1">
          <mxGeometry x="374" y="196.25" width="90" height="37.5" as="geometry" />
        </mxCell>
        <mxCell id="HZNDwcKFpfIO234wk1Q9-37" value="Registration Form" style="ellipse;whiteSpace=wrap;html=1;" vertex="1" parent="WIyWlLk6GJQsqaUBKTNV-1">
          <mxGeometry x="250" y="290" width="90" height="40" as="geometry" />
        </mxCell>
      </root>
    </mxGraphModel>
  </diagram>
</mxfile>
